<svg width="96" height="96" xmlns="http://www.w3.org/2000/svg">
 <g>
  <title>Layer 1</title>
  <path id="svg_1" d="m48,95c-25.96685,0 -47,-21.03315 -47,-47c0,-25.96685 21.03315,-47 47,-47c25.96685,0 47,21.03315 47,47c0,25.96685 -21.03315,47 -47,47z" opacity="undefined" stroke-width="0" stroke="#000000" fill="#2196f3"/>
  <path id="svg_2" d="m67.95628,16.04371" opacity="NaN" stroke="#000000" fill="#400080"/>
  <path id="svg_6" d="m62.78933,37.1999c0,0 2.60964,-10.78896 0,-14.44369c-2.61271,-3.65472 -3.65472,-6.08916 -9.39961,-7.83199s-3.65165,-1.3955 -7.82891,-1.21722c-4.17726,0.17521 -7.65985,2.43443 -7.65985,3.65165c0,0 -2.60964,0.17521 -3.65165,1.22029c-1.04508,1.04508 -2.78484,5.91395 -2.78484,7.13424s0.86988,9.39962 1.73976,11.13937l-1.03586,0.34734c-0.86988,10.09122 3.47951,11.31151 3.47951,11.31151c1.56455,9.39962 3.13218,5.39756 3.13218,7.83199s-1.56763,1.56763 -1.56763,1.56763s-1.38935,3.82685 -4.86886,5.21928c-3.47951,1.38935 -22.79512,8.87093 -24.36582,10.43855c-1.5707,1.5707 -1.39242,8.87707 -1.39242,8.87707l82.82904,0c0,0 0.18135,-7.30637 -1.38935,-8.87707c-1.57377,-1.5707 -20.88938,-9.0492 -24.3689,-10.43855c-3.47951,-1.39242 -4.86886,-5.21928 -4.86886,-5.21928s-1.56763,0.86681 -1.56763,-1.56763s1.56763,1.56763 3.13525,-7.83199c0,0 4.34632,-1.22029 3.47951,-11.31151l-1.04508,0z" stroke-width="0" stroke="#000000" fill="#6ec6ff"/>
 </g>

</svg>